PathFileType	4	(X/Y/Z)	D:\TRACE\v60_Jaco2_6-2-23\JustArmDRS_Motion2_1-Unnamed.trc
DataRate	CameraRate	NumFrames	NumMarkers	Units	OrigDataRate	OrigDataStartFrame	OrigNumFrames
100.00	100.00	      121	0	mm	100.00	4500	      7199
Frame#	Time	
		

4500	44.990																															102.62843	1066.45801	-130.90633	-477.80814	1195.16113	-107.67204	
4501	45.000																												-250.22559	1201.49255	-456.38120				-475.93225	1195.98450	-108.45526	
4502	45.010																																		-471.76389	1195.93567	-108.99960	
4503	45.020																												-249.19490	1202.25049	-455.38501				-475.98386	1196.24670	-106.36967	
4504	45.030																						104.81927	1068.71411	-128.40208										-489.52908	1195.75684	-98.07827	
4505	45.040																						104.91024	1069.02954	-127.93082				111.71934	1043.63379	-107.14214				-493.67737	1196.00134	-95.35010	
4506	45.050	
4507	45.060																						105.03098	1070.11902	-126.58146				113.12134	1040.83740	-103.46388	
4508	45.070																																		-483.86984	1197.06152	-98.71710	
4509	45.080																																		-484.19949	1197.23828	-98.47481	
4510	45.090																						78.48206	863.90997	-31.91799										-485.78726	1197.29382	-96.76402	
4511	45.100																																		-486.72263	1197.63428	-95.98916										195.84972	662.64539	-217.92891	
4512	45.110										115.06479	1036.76392	-96.30403																						-483.39130	1198.07507	-97.68738										194.66483	662.82068	-217.71849	
4513	45.120																						104.53869	1072.76282	-124.29668																						193.96320	662.98584	-217.34233				78.14630	863.90967	-30.73724	
4514	45.130																						103.95119	1073.15857	-124.42716																						193.50505	663.14246	-217.10008				78.54349	864.09631	-30.06066	
4515	45.140																						103.62563	1073.07910	-124.33382																						192.87505	663.24017	-216.67911				78.53625	863.97626	-29.81330	
4516	45.150																																														192.14764	663.30011	-216.26122				78.82724	863.51306	-29.31562	
4517	45.160	154.98134	1046.51440	-513.75739																																											191.31100	663.33917	-216.23581	
4518	45.170	154.42250	1046.94141	-513.43109	
4519	45.180																						78.36329	863.66980	-28.98096	
4520	45.190	152.94136	1047.34326	-512.54089	
4521	45.200	152.66466	1047.50256	-512.64594																															101.40802	1074.57544	-123.35794										170.12569	1294.78027	-316.61923				75.38748	864.01666	-28.71443	
4522	45.210																																		100.89000	1074.72192	-123.27462										170.03055	1294.91077	-315.69159				74.02094	864.52875	-28.90530							186.50879	663.50305	-215.77753	
4523	45.220																																		100.09274	1074.96167	-123.21221																73.42500	864.24677	-28.51460	
4524	45.230																																																				73.04846	864.56885	-28.39490	
4525	45.240	168.02783	1295.46570	-315.51501																																																	72.84178	864.65631	-28.30023	
4526	45.250	165.68584	1295.86389	-317.14597							150.15500	1048.59729	-512.49664																																								72.82970	864.66663	-28.29638	
4527	45.260																																		30.79006	1233.73694	261.98486							97.92002	1076.37024	-122.83968							72.59770	864.82196	-28.37925	
4528	45.270										2266.22778	831.90833	-612.57294																															97.14288	1076.61707	-122.41551							71.89687	865.05212	-28.43125	
4529	45.280																																											96.52840	1076.68713	-122.17265	164.97760	1296.09033	-315.11337				69.76682	864.92517	-27.85459	
4530	45.290							146.97575	1050.04858	-512.52887																																					164.11810	1296.37695	-314.79892				68.43050	865.43250	-27.65228	
4531	45.300							145.52087	1050.57434	-511.28802	94.42129	1077.39014	-122.21101																																		162.87935	1296.64954	-314.68881	
4532	45.310							143.71465	1050.35144	-511.44711																																					159.70407	1297.12158	-316.20395	
4533	45.320																																														159.64188	1297.17651	-315.51953	
4534	45.330							91.58197	1078.19177	-122.20755	141.97038	1050.76440	-512.16168																									65.87356	865.54913	-27.79928							159.13258	1297.12756	-315.16971	
4535	45.340							90.34160	1078.04199	-122.17503																												65.37154	865.56683	-27.65995							158.18855	1297.10596	-315.11237	
4536	45.350																																					63.97885	865.68353	-27.54220							157.29211	1297.16394	-315.52600	
4537	45.360										137.57956	1051.11694	-512.42505																									62.03521	865.93011	-27.50561							156.44240	1297.22058	-315.25455	
4538	45.370										135.88341	1051.11292	-512.25647																									61.16396	866.15521	-27.47043				-330.98669	767.74664	764.69824	155.31398	1297.12366	-314.80399	
4539	45.380																																					59.62902	866.38812	-27.56797				-331.27573	767.45361	764.39838	154.73177	1297.17029	-314.61804	
4540	45.390																																					57.87539	866.51581	-28.00896				-331.59561	767.23120	763.98785	152.51770	1297.55920	-315.54541	
4541	45.400																																					57.53224	866.42719	-28.02164							151.04568	1297.99048	-315.76273	-270.20215	1212.18433	-446.65256	82.91521	1079.36096	-123.20554							132.02786	1051.98853	-512.44604	
4542	45.410																																					55.76096	866.65454	-28.41678							148.84633	1298.11377	-316.66611													131.61948	1052.12341	-512.18378	
4543	45.420																																		-270.97968	1212.58105	-448.02368	55.33292	866.68945	-28.48598				79.79675	1080.04382	-123.87638																130.39339	1052.46460	-513.08716	
4544	45.430																																					53.59544	866.57886	-28.76902							147.25963	1298.07190	-315.53113	166.55380	667.40186	-218.32932										128.10191	1052.69727	-512.44666	
4545	45.440																																		76.84516	1080.47742	-124.64603	52.74691	866.68463	-28.84149							145.41290	1298.33679	-316.27313	167.04721	667.67914	-218.58775										126.85069	1052.86682	-512.91595	
4546	45.450																																					50.63501	866.82489	-29.40427							143.36411	1298.77856	-316.98718	166.55611	667.98572	-218.97333										125.46566	1052.61426	-512.85986	
4547	45.460																																					50.14075	867.12946	-29.38890							140.92877	1298.99219	-317.99384	166.52469	667.99048	-219.59109										123.55897	1052.39099	-513.06226	
4548	45.470																																		72.43687	1081.34534	-125.70968	47.74662	867.12909	-30.11630							139.73692	1299.07507	-317.73236	165.68082	668.32843	-219.57651	
4549	45.480																																		71.01868	1081.45605	-125.98833							120.36591	1052.48718	-513.18567	139.22426	1298.91760	-317.30142	
4550	45.490																																					-281.63245	1213.35681	-447.75958							138.19817	1299.12439	-316.93500	
4551	45.500																																		116.94868	1053.09521	-513.13483							43.61755	866.86963	-30.84366	
4552	45.510																																					66.06458	1082.26038	-127.19757							133.32785	1299.96704	-318.58038	
4553	45.520																																					63.89754	1082.11389	-127.98088				41.29140	866.95129	-31.76511	
4554	45.530										129.98051	1300.73083	-319.01291	
4555	45.540																																											37.43476	866.89984	-33.28045	
4556	45.550							58.42973	1083.62000	-130.32759																																		35.32035	867.81439	-33.90039	
4557	45.560							56.70227	1084.35693	-130.46919	
4558	45.570							54.59523	1084.44702	-131.73822	
4559	45.580	
4560	45.590							50.74582	1086.61670	-133.50529	
4561	45.600	
4562	45.610	
4563	45.620							111.86129	1305.16138	-320.99936	
4564	45.630	
4565	45.640	
4566	45.650	
4567	45.660																																		56.78931	1027.23657	-91.33855	104.48559	1307.42261	-320.58911	
4568	45.670																																		54.92886	1029.34912	-93.42573	
4569	45.680																																		52.12889	1030.64954	-94.93520	
4570	45.690																																		50.48501	1031.31555	-96.45852	
4571	45.700																																					94.48112	1309.65625	-323.31387	
4572	45.710																																											27.52973	1101.15771	-147.67711	
4573	45.720																												37.81508	1065.88904	-123.70882							91.09484	1310.46130	-322.84818				25.23008	1102.41968	-148.82420	
4574	45.730																												35.36018	1066.06860	-124.20768	
4575	45.740																												34.05410	1065.00488	-124.30581							41.44851	1035.21594	-102.51883	
4576	45.750																																					38.57124	1036.18652	-104.05931							19.22814	1104.80273	-152.20073	
4577	45.760																																														17.19962	1105.44250	-153.09019	
4578	45.770																															28.79223	1065.77417	-127.02267	
4579	45.780																															26.28880	1066.38293	-128.31186										13.29477	1106.34924	-155.19940	78.06046	1312.59680	-325.89029	
4580	45.790							29.51854	1038.26978	-109.02093																																		10.90397	1106.84570	-156.02078	73.66012	1313.69397	-328.09317	31.00647	1030.91467	-102.63769	
4581	45.800																																											8.50361	1106.94849	-157.19814				27.66766	1037.67456	-109.35345	
4582	45.810																																											6.29037	1107.45398	-158.17160	
4583	45.820	17.71061	1066.39331	-131.69087																																								4.82627	1107.47974	-159.03777	
4584	45.830																																											2.16591	1107.97766	-160.34621	
4585	45.840																															41.56836	1136.03711	-509.31088										0.68419	1107.41296	-161.02261	
4586	45.850																																		11.03383	1066.27429	-134.81459							-1.91568	1107.31750	-162.42412	17.25014	1035.49109	-112.37720	
4587	45.860																															-1219.64197	-556.85565	-2422.22998	
4588	45.870																																		-5.91889	1107.29810	-164.68559	
4589	45.880																															5.19316	1066.78516	-138.31044	-7.91442	1107.08252	-165.49519	
4590	45.890																															2.03998	1066.92102	-139.61172	-10.23254	1107.08423	-166.79927							9.27481	1033.79919	-115.23764	
4591	45.900																															0.09907	1066.40833	-140.42003	-11.98875	1106.60974	-167.72310							8.31193	1031.82080	-114.94630	-324.94543	807.28076	-173.04802	
4592	45.910																																		-13.60772	1106.18286	-168.75081							6.40822	1031.80420	-116.08742	
4593	45.920																																		-15.83828	1105.47400	-169.65327							5.43157	1029.44153	-115.50166	
4594	45.930	
4595	45.940	
4596	45.950	-21.44141	1103.93066	-172.73630																												-328.48239	806.55194	-177.34538	972.22113	734.69348	66.03202	
4597	45.960	-23.51301	1102.74390	-173.34489	
4598	45.970	
4599	45.980	
4600	45.990	
4601	46.000	
4602	46.010	
4603	46.020	
4604	46.030	
4605	46.040	
4606	46.050																																											950.15527	725.61511	38.13875	
4607	46.060	
4608	46.070	
4609	46.080	
4610	46.090	-553.35608	1213.17627	-162.83005	
4611	46.100	-557.99847	1212.44116	-162.23001																																								-618.28796	1210.05811	-141.65892	
4612	46.110	-560.41211	1211.27454	-162.78108	
4613	46.120	-563.62622	1210.42993	-162.89409																																								-620.26788	1208.84229	-145.54408	
4614	46.130																																											-616.00726	1208.47058	-150.32597	
4615	46.140																																											-615.00610	1207.95142	-153.02727	-571.62140	1208.59875	-162.36385	
4616	46.150																																											-580.27325	1206.99744	-159.00826	
4617	46.160							-34.75615	1283.69299	-423.08057																																		-579.67493	1206.52490	-161.33757	
4618	46.170																																														-581.68927	1205.90808	-162.12953	
4619	46.180							-55.70871	1055.82886	-184.41603																																		-37.60404	1281.27112	-426.85962	-583.03613	1205.16553	-163.29413	
4620	46.190	
